#!OML:ASF E:\acrobat2\Project_11_07_03\Capture day 1\Session 1\Acrobat.ASF
:FULLY-SPECIFIED
:DEGREES
417
root 11.4892 17.8746 26.6597 -176.463 -48.5119 -179.371
lowerback -0.466301 -3.6573 -4.46197
upperback 2.9117 -4.9482 -5.8708
thorax 3.11987 -2.63269 -3.74315
lowerneck 6.03891 13.8719 5.78532
upperneck -11.7951 18.7211 -4.79225
head -3.90327 9.21024 -3.38501
rclavicle 2.46493e-014 -6.04305e-014
rhumerus -70.5776 -20.998 -27.1173
rradius 41.7835
rwrist -29.9477
rhand -12.3905 -46.0184
rfingers 7.12502
rthumb 13.6807 -75.5487
lclavicle 2.46493e-014 -6.04305e-014
lhumerus 85.2683 -80.948 14.9865
lradius 50.9143
lwrist 5.75893
lhand -11.8868 -23.1164
lfingers 7.12502
lthumb 14.166 6.38058
rfemur -5.31697 15.9465 1.92226
rtibia 0.186675
rfoot -24.3085 -31.627
rtoes 20.1648
lfemur 4.81883 5.93787 -9.69998
ltibia 15.0131
lfoot -25.9427 -6.33775
ltoes 34.0784
418
root 11.4916 17.8749 26.6373 -176.764 -48.6217 -179.028
lowerback -0.552258 -3.24292 -3.88238
upperback 2.6918 -4.42309 -6.23376
thorax 2.88278 -2.35863 -4.4195
lowerneck 6.69973 13.3083 6.88272
upperneck -12.1958 18.0815 -5.05581
head -3.65759 8.87914 -3.33824
rclavicle 9.30312e-014 -7.95139e-014
rhumerus -72.716 -21.3845 -26.9826
rradius 41.1445
rwrist -29.841
rhand -11.3408 -45.5118
rfingers 7.12502
rthumb 14.6922 -74.9712
lclavicle 9.30312e-014 -7.95139e-014
lhumerus 99.2111 -81.9642 0.710078
lradius 52.5986
lwrist 5.5755
lhand -11.2863 -23.4923
lfingers 7.12502
lthumb 14.7447 5.96325
rfemur -5.14445 16.0212 2.29336
rtibia 0.110214
rfoot -24.6491 -31.5736
rtoes 20.6205
lfemur 5.1316 5.64546 -9.43007
ltibia 14.5462
lfoot -26.1245 -5.6135
ltoes 32.2491
419
root 11.4949 17.8759 26.6099 -176.894 -48.8079 -178.958
lowerback -0.657131 -2.9295 -3.61203
upperback 2.52474 -4.02319 -6.52186
thorax 2.74804 -2.15656 -4.85967
lowerneck 7.22984 12.968 7.58084
upperneck -12.1206 17.7464 -5.03531
head -3.68173 8.68753 -3.45387
rclavicle -4.77083e-015 8.90555e-014
rhumerus -74.3407 -21.867 -26.7932
rradius 40.2494
rwrist -29.7083
rhand -11.6394 -45.022
rfingers 7.12502
rthumb 14.4045 -74.5022
lclavicle -4.77083e-015 8.90555e-014
lhumerus 113.287 -82.3492 -13.6167
lradius 54.2791
lwrist 5.60975
lhand -10.8083 -23.6155
lfingers 7.12502
lthumb 15.2051 5.80574
rfemur -4.84812 16.0297 2.47278
rtibia -0.0596474
rfoot -24.7101 -31.8454
rtoes 20.0375
lfemur 5.42743 5.38347 -9.3268
ltibia 14.1596
lfoot -26.0712 -5.20878
ltoes 31.6329
420
root 11.4983 17.8784 26.5818 -176.999 -48.9838 -178.884
lowerback -0.839897 -3.08827 -3.86454
upperback 2.57167 -4.19842 -6.26926
thorax 2.9269 -2.2442 -4.47446
lowerneck 6.79032 13.2454 6.89584
upperneck -11.3799 18.0769 -4.53223
head -3.8606 8.84593 -3.4982
rclavicle -1.20464e-013 -1.145e-013
rhumerus -74.0074 -22.3199 -26.9848
rradius 39.1944
rwrist -29.306
rhand -12.4086 -44.9027
rfingers 7.12502
rthumb 13.6632 -74.4343
lclavicle -1.20464e-013 -1.145e-013
lhumerus 115.588 -82.3216 -15.9435
lradius 55.5732
lwrist 5.65221
lhand -10.7342 -23.6953
lfingers 7.12502
lthumb 15.2766 5.72057
rfemur -4.60456 15.768 2.64637
rtibia -0.185848
rfoot -24.1259 -32.013
rtoes 18.2574
lfemur 5.68572 4.9958 -9.27701
ltibia 13.7883
lfoot -26.1481 -4.91369
ltoes 31.1473
421
root 11.5007 17.8782 26.5573 -177.153 -49.1131 -178.573
lowerback -1.12462 -3.31311 -3.97622
upperback 2.59407 -4.45024 -5.90317
thorax 3.13638 -2.36382 -4.06036
lowerneck 6.36193 13.4757 6.11339
upperneck -11.3541 18.2883 -4.37526
head -3.84512 8.97396 -3.29666
rclavicle -1.49089e-014 -2.22639e-014
rhumerus -73.3805 -22.753 -27.1755
rradius 38.0703
rwrist -28.7676
rhand -12.5428 -45.1722
rfingers 7.12502
rthumb 13.5339 -74.7124
lclavicle -1.49089e-014 -2.22639e-014
lhumerus 115.646 -82.2838 -16.2362
lradius 56.9971
lwrist 5.53394
lhand -10.886 -23.8291
lfingers 7.12502
lthumb 15.1303 5.59788
rfemur -4.54607 15.5875 2.95698
rtibia -0.273947
rfoot -23.5962 -32.1866
rtoes 16.3262
lfemur 5.85865 4.46618 -9.12781
ltibia 13.3078
lfoot -26.45 -4.38397
ltoes 30.0529
422
root 11.501 17.8731 26.5469 -177.005 -49.1816 -178.537
lowerback -1.3823 -3.35816 -3.96646
upperback 2.51829 -4.48472 -5.75399
thorax 3.21292 -2.37616 -3.92659
lowerneck 6.14143 13.5591 5.84537
upperneck -11.299 18.3483 -4.46481
head -3.79571 9.02215 -3.26149
rclavicle -7.31528e-014 1.27222e-014
rhumerus -73.2172 -23.0347 -27.5068
rradius 37.0926
rwrist -28.6258
rhand -12.5982 -45.5906
rfingers 7.12502
rthumb 13.4805 -75.1343
lclavicle -7.31528e-014 1.27222e-014
lhumerus 117.53 -82.3333 -18.5821
lradius 58.7968
lwrist 5.03855
lhand -10.3368 -24.0917
lfingers 7.12502
lthumb 15.6593 5.29458
rfemur -4.74776 15.0476 2.91189
rtibia -0.183524
rfoot -22.7519 -32.1981
rtoes 14.4516
lfemur 5.84397 3.97068 -9.27016
ltibia 12.9085
lfoot -26.7587 -3.81616
ltoes 29.3543
423
root 11.4981 17.8664 26.5492 -176.836 -49.1695 -178.564
lowerback -1.55228 -3.25577 -3.75745
upperback 2.38649 -4.34418 -5.74944
thorax 3.16178 -2.29846 -4.03683
lowerneck 6.0965 13.5263 5.91357
upperneck -11.1351 18.2927 -4.61755
head -3.70969 9.0071 -3.30089
rclavicle 1.32788e-013 5.725e-014
rhumerus -73.3828 -23.1375 -28.1364
rradius 36.4084
rwrist -28.8987
rhand -12.919 -46.2312
rfingers 7.12502
rthumb 13.1713 -75.7952
lclavicle 1.32788e-013 5.725e-014
lhumerus 121.567 -82.4029 -23.011
lradius 60.4084
lwrist 4.47058
lhand -9.40152 -24.6567
lfingers 7.12502
lthumb 16.5599 4.65674
rfemur -5.12563 13.8583 2.72024
rtibia 0.194863
rfoot -21.3392 -31.5783
rtoes 12.8394
lfemur 5.75415 3.55602 -9.50367
ltibia 12.6852
lfoot -27.0552 -3.35194
ltoes 28.9174
424
root 11.4958 17.864 26.5428 -176.83 -49.1938 -178.429
lowerback -1.74761 -3.18202 -3.53687
upperback 2.23425 -4.23902 -5.69422
thorax 3.10624 -2.23708 -4.10271
lowerneck 6.32989 13.5451 6.01811
upperneck -10.9932 18.3366 -4.71249
head -3.68149 9.03683 -3.35887
rclavicle -8.50798e-014 3.18055e-014
rhumerus -73.5003 -23.2784 -28.6305
rradius 35.6185
rwrist -28.8228
rhand -13.1002 -46.7052
rfingers 7.12502
rthumb 12.9966 -76.2803
lclavicle -8.50798e-014 3.18055e-014
lhumerus 126.568 -82.4656 -28.3542
lradius 61.6718
lwrist 4.10483
lhand -9.05191 -25.1953
lfingers 7.12502
lthumb 16.8965 4.08967
rfemur -5.3435 12.9558 2.74685
rtibia 0.435351
rfoot -20.399 -30.9777
rtoes 11.9319
lfemur 5.75045 3.30673 -9.49439
ltibia 12.442
lfoot -27.2038 -3.08456
ltoes 29.1569
425
root 11.4961 17.8648 26.5262 -176.718 -49.2642 -178.433
lowerback -1.96186 -3.07334 -3.46658
upperback 2.07659 -4.08677 -5.69661
thorax 3.06496 -2.15786 -4.14447
lowerneck 6.33143 13.4201 5.88187
upperneck -10.8408 18.1933 -4.32533
head -3.68858 8.95276 -3.20764
rclavicle 1.05555e-013 9.22361e-014
rhumerus -73.8453 -23.7717 -28.6209
rradius 34.5615
rwrist -28.1349
rhand -12.9804 -46.6006
rfingers 7.12502
rthumb 13.1121 -76.1684
lclavicle 1.05555e-013 9.22361e-014
lhumerus 132.516 -82.3861 -34.7348
lradius 62.909
lwrist 3.70434
lhand -8.86599 -25.5386
lfingers 7.12502
lthumb 17.0754 3.731
rfemur -5.40435 12.5252 2.74149
rtibia 0.431205
rfoot -19.9335 -30.8072
rtoes 10.9499
lfemur 5.84566 3.00585 -9.56986
ltibia 12.0302
lfoot -27.2848 -2.76107
ltoes 29.3014
426
root 11.4991 17.8652 26.5108 -176.62 -49.2637 -178.432
lowerback -2.1555 -2.9165 -3.4121
upperback 1.95956 -3.86926 -5.68973
thorax 3.0593 -2.04674 -4.16508
lowerneck 6.15767 13.4017 6.05115
upperneck -10.3357 18.1763 -4.29987
head -3.46462 8.95316 -3.16936
rclavicle 3.53837e-014 2.54444e-014
rhumerus -74.188 -24.2417 -28.7343
rradius 33.6069
rwrist -27.6334
rhand -12.906 -46.3608
rfingers 7.12502
rthumb 13.1838 -75.924
lclavicle 3.53837e-014 2.54444e-014
lhumerus 136.787 -82.2366 -39.4936
lradius 64.1596
lwrist 2.96791
lhand -8.48655 -26.0046
lfingers 7.12502
lthumb 17.4406 3.23301
rfemur -5.51001 12.275 2.74673
rtibia 0.440255
rfoot -19.4987 -30.7104
rtoes 9.63517
lfemur 5.98177 2.67039 -9.64836
ltibia 11.5692
lfoot -27.4425 -2.38987
ltoes 29.1146
427
root 11.5042 17.8648 26.4932 -176.595 -49.2293 -178.322
lowerback -2.38072 -2.79368 -3.39607
upperback 1.84915 -3.68912 -5.58711
thorax 3.08564 -1.95326 -4.0675
lowerneck 5.99836 13.206 6.27414
upperneck -10.0634 17.9076 -4.45944
head -3.31828 8.82853 -3.2122
rclavicle 4.27387e-014 9.22361e-014
rhumerus -74.2452 -24.479 -29.1461
rradius 32.7927
rwrist -27.3411
rhand -12.8731 -46.3371
rfingers 7.12502
rthumb 13.2155 -75.8982
lclavicle 4.27387e-014 9.22361e-014
lhumerus 139.843 -82.1084 -43.1012
lradius 65.3713
lwrist 2.31197
lhand -8.32127 -26.4844
lfingers 7.12502
lthumb 17.5997 2.73903
rfemur -5.61497 12.2155 2.85697
rtibia 0.426763
rfoot -19.529 -30.4262
rtoes 9.349
lfemur 6.12292 2.54807 -9.53695
ltibia 11.1076
lfoot -27.5144 -2.01826
ltoes 28.7277
428
root 11.5079 17.8645 26.473 -176.521 -49.2808 -178.26
lowerback -2.63747 -2.70817 -3.41378
upperback 1.73717 -3.55685 -5.49703
thorax 3.12689 -1.88488 -3.96781
lowerneck 6.67467 13.2603 6.81023
upperneck -10.5961 18.0176 -5.14203
head -3.50941 8.88793 -3.6075
rclavicle -4.7112e-014 2.06736e-014
rhumerus -74.2081 -24.818 -29.4795
rradius 31.9041
rwrist -26.7514
rhand -12.8759 -46.352
rfingers 7.12502
rthumb 13.2128 -75.9133
lclavicle -4.7112e-014 2.06736e-014
lhumerus 143.271 -82.0117 -47.1212
lradius 66.5051
lwrist 2.05608
lhand -8.01122 -26.8138
lfingers 7.12502
lthumb 17.898 2.38265
rfemur -5.6119 12.1459 2.9327
rtibia 0.304758
rfoot -19.6536 -30.4529
rtoes 10.4584
lfemur 6.21904 2.4295 -9.46274
ltibia 10.7078
lfoot -27.4966 -1.71244
ltoes 28.1676
429
root 11.5121 17.8648 26.4532 -176.426 -49.3304 -178.271
lowerback -2.86482 -2.59117 -3.45232
upperback 1.65214 -3.38442 -5.44172
thorax 3.17976 -1.79798 -3.88945
lowerneck 7.1012 13.3683 7.031
upperneck -11.1931 18.16 -5.58296
head -3.3458 8.98623 -3.47952
rclavicle -3.598e-014 -6.36111e-015
rhumerus -74.2757 -25.1495 -29.8881
rradius 31.1723
rwrist -26.2123
rhand -12.8982 -46.4005
rfingers 7.12502
rthumb 13.1914 -75.9632
lclavicle -3.598e-014 -6.36111e-015
lhumerus 146.997 -81.8566 -51.4299
lradius 67.5529
lwrist 2.04523
lhand -7.6416 -27.0622
lfingers 7.12502
lthumb 18.2537 2.10136
rfemur -5.53808 12.2586 2.97832
rtibia 0.128026
rfoot -19.8605 -30.4713
rtoes 10.9182
lfemur 6.29816 2.29578 -9.45977
ltibia 10.4272
lfoot -27.469 -1.57391
ltoes 27.6071
